<svg width="473" height="214" viewBox="0 0 473 214" fill="none" xmlns="http://www.w3.org/2000/svg">
<circle cx="468.636" cy="3.52407" r="3.52358" transform="rotate(90 468.636 3.52407)" fill="#EF4358"/>
<circle cx="468.636" cy="55.2028" r="3.52358" transform="rotate(90 468.636 55.2028)" fill="#EF4358"/>
<circle cx="468.636" cy="106.882" r="3.52358" transform="rotate(90 468.636 106.882)" fill="#EF4358"/>
<circle cx="468.636" cy="158.561" r="3.52358" transform="rotate(90 468.636 158.561)" fill="#EF4358"/>
<circle cx="468.636" cy="210.24" r="3.52358" transform="rotate(90 468.636 210.24)" fill="#EF4358"/>
<circle cx="416.957" cy="3.52358" r="3.52358" transform="rotate(90 416.957 3.52358)" fill="#EF4358"/>
<circle cx="416.957" cy="55.2028" r="3.52358" transform="rotate(90 416.957 55.2028)" fill="#EF4358"/>
<circle cx="416.957" cy="106.882" r="3.52358" transform="rotate(90 416.957 106.882)" fill="#EF4358"/>
<circle cx="416.957" cy="158.561" r="3.52358" transform="rotate(90 416.957 158.561)" fill="#EF4358"/>
<circle cx="416.957" cy="210.24" r="3.52358" transform="rotate(90 416.957 210.24)" fill="#EF4358"/>
<circle cx="365.278" cy="3.52358" r="3.52358" transform="rotate(90 365.278 3.52358)" fill="#EF4358"/>
<circle cx="365.278" cy="55.2028" r="3.52358" transform="rotate(90 365.278 55.2028)" fill="#EF4358"/>
<circle cx="365.278" cy="106.882" r="3.52358" transform="rotate(90 365.278 106.882)" fill="#EF4358"/>
<circle cx="365.278" cy="158.561" r="3.52358" transform="rotate(90 365.278 158.561)" fill="#EF4358"/>
<circle cx="365.278" cy="210.24" r="3.52358" transform="rotate(90 365.278 210.24)" fill="#EF4358"/>
<circle cx="313.598" cy="3.52358" r="3.52358" transform="rotate(90 313.598 3.52358)" fill="#EF4358"/>
<circle cx="313.598" cy="55.2028" r="3.52358" transform="rotate(90 313.598 55.2028)" fill="#EF4358"/>
<circle cx="313.598" cy="106.882" r="3.52358" transform="rotate(90 313.598 106.882)" fill="#EF4358"/>
<circle cx="313.598" cy="158.561" r="3.52358" transform="rotate(90 313.598 158.561)" fill="#EF4358"/>
<circle cx="313.598" cy="210.24" r="3.52358" transform="rotate(90 313.598 210.24)" fill="#EF4358"/>
<circle cx="261.919" cy="3.52358" r="3.52358" transform="rotate(90 261.919 3.52358)" fill="#EF4358"/>
<circle cx="261.919" cy="55.2028" r="3.52358" transform="rotate(90 261.919 55.2028)" fill="#EF4358"/>
<circle cx="261.919" cy="106.882" r="3.52358" transform="rotate(90 261.919 106.882)" fill="#EF4358"/>
<circle cx="261.919" cy="158.561" r="3.52358" transform="rotate(90 261.919 158.561)" fill="#EF4358"/>
<circle cx="261.919" cy="210.24" r="3.52358" transform="rotate(90 261.919 210.24)" fill="#EF4358"/>
<circle cx="210.24" cy="3.52358" r="3.52358" transform="rotate(90 210.24 3.52358)" fill="#EF4358"/>
<circle cx="210.24" cy="55.2028" r="3.52358" transform="rotate(90 210.24 55.2028)" fill="#EF4358"/>
<circle cx="210.24" cy="106.882" r="3.52358" transform="rotate(90 210.24 106.882)" fill="#EF4358"/>
<circle cx="210.24" cy="158.561" r="3.52358" transform="rotate(90 210.24 158.561)" fill="#EF4358"/>
<circle cx="210.24" cy="210.24" r="3.52358" transform="rotate(90 210.24 210.24)" fill="#EF4358"/>
<circle cx="158.561" cy="3.52358" r="3.52358" transform="rotate(90 158.561 3.52358)" fill="#EF4358"/>
<circle cx="158.561" cy="55.2028" r="3.52358" transform="rotate(90 158.561 55.2028)" fill="#EF4358"/>
<circle cx="158.561" cy="106.882" r="3.52358" transform="rotate(90 158.561 106.882)" fill="#EF4358"/>
<circle cx="158.561" cy="158.561" r="3.52358" transform="rotate(90 158.561 158.561)" fill="#EF4358"/>
<circle cx="158.561" cy="210.24" r="3.52358" transform="rotate(90 158.561 210.24)" fill="#EF4358"/>
<circle cx="106.882" cy="3.52358" r="3.52358" transform="rotate(90 106.882 3.52358)" fill="#EF4358"/>
<circle cx="106.882" cy="55.2028" r="3.52358" transform="rotate(90 106.882 55.2028)" fill="#EF4358"/>
<circle cx="106.882" cy="106.882" r="3.52358" transform="rotate(90 106.882 106.882)" fill="#EF4358"/>
<circle cx="106.882" cy="158.561" r="3.52358" transform="rotate(90 106.882 158.561)" fill="#EF4358"/>
<circle cx="106.882" cy="210.24" r="3.52358" transform="rotate(90 106.882 210.24)" fill="#EF4358"/>
<circle cx="55.2025" cy="3.52358" r="3.52358" transform="rotate(90 55.2025 3.52358)" fill="#EF4358"/>
<circle cx="55.2025" cy="55.2028" r="3.52358" transform="rotate(90 55.2025 55.2028)" fill="#EF4358"/>
<circle cx="55.2025" cy="106.882" r="3.52358" transform="rotate(90 55.2025 106.882)" fill="#EF4358"/>
<circle cx="55.2025" cy="158.561" r="3.52358" transform="rotate(90 55.2025 158.561)" fill="#EF4358"/>
<circle cx="55.2025" cy="210.24" r="3.52358" transform="rotate(90 55.2025 210.24)" fill="#EF4358"/>
<circle cx="3.52329" cy="3.52358" r="3.52358" transform="rotate(90 3.52329 3.52358)" fill="#EF4358"/>
<circle cx="3.52329" cy="55.2028" r="3.52358" transform="rotate(90 3.52329 55.2028)" fill="#EF4358"/>
<circle cx="3.52329" cy="106.882" r="3.52358" transform="rotate(90 3.52329 106.882)" fill="#EF4358"/>
<circle cx="3.52329" cy="158.561" r="3.52358" transform="rotate(90 3.52329 158.561)" fill="#EF4358"/>
<circle cx="3.52329" cy="210.24" r="3.52358" transform="rotate(90 3.52329 210.24)" fill="#EF4358"/>
</svg>
